# xmcd CD database file
#
# Track frame offsets:
#	150
#	12423
#	25687
#	36653
#	48699
#	59815
#	71216
#	80693
#	94958
#	108138
#	117717
#	126822
#	136866
#	152595
#	166029
#	178447
#	192715
#	204010
#	217338
#	228551
#	241500
#	256090
#	266930
#	280337
#
# Disc length: 3897 seconds
#
# Revision: 1
# Processed by: cddbd v1.5.2PL0 Copyright (c) Steve Scherf et al.
# Submitted via: CDex 1.51
#
DISCID=720f3718
DTITLE=Various Artist - He'll Have To Stay
DYEAR=1900
DGENRE=
TTITLE0=He'll Have To Stay
TTITLE1=Under Your Spell Again
TTITLE2=You'll Find Out
TTITLE3=Sleep Walkin'
TTITLE4=Don't Speak To Me
TTITLE5=When You're Alone
TTITLE6=Journey Of Love
TTITLE7=Lisa
TTITLE8=Oh How I Miss You Tonight
TTITLE9=I'm Gonna Make It Happen
TTITLE10=I Stole You Away From Someone Else
TTITLE11=Hello Mr. Misery
TTITLE12=I Almost Lost My Mind
TTITLE13=How Many
TTITLE14=Little Bit Lonely
TTITLE15=Black - My Baby's Gone
TTITLE16=You Win Again
TTITLE17=Loneliest Heart In Town
TTITLE18=Beautiful Lies
TTITLE19=I Know I Can't Forget
TTITLE20=You Don't Know Me
TTITLE21=Lonely Sixteen
TTITLE22=Jimmy Love
TTITLE23=Commandments Of Love
EXTD=
EXTT0=
EXTT1=
EXTT2=
EXTT3=
EXTT4=
EXTT5=
EXTT6=
EXTT7=
EXTT8=
EXTT9=
EXTT10=
EXTT11=
EXTT12=
EXTT13=
EXTT14=
EXTT15=
EXTT16=
EXTT17=
EXTT18=
EXTT19=
EXTT20=
EXTT21=
EXTT22=
EXTT23=
PLAYORDER=
